# xmcd CD database file generated by LOLA_Freedb v0.9beta0
# 
# Track frame offsets:
#      150
#      23268
#      43005
#      60614
#      83246
#      103607
#      125861
#      147508
#      166065
#      188211
#      202502
#      221537
# 
# Disc length: 3258 seconds
# 
# Revision: 0 
# Processed by: cddbd v1.5.2PL0 Copyright (c) Steve Scherf et al.
# Submitted via: LOLA_Freedb v0.9beta0
# 
DISCID=9e0cb80c
DTITLE=Grit Sigmund - Maybe Me
DYEAR=2012
DGENRE=
TTITLE0=Grit Sigmund - Trear in your Hand
TTITLE1=Grit Sigmund - The Rose
TTITLE2=Grit Sigmund - Penelope´s Song
TTITLE3=Grit Sigmund - Where the wild Roses grow
TTITLE4=Grit Sigmund - Dead Boy´s Poem
TTITLE5=Grit Sigmund - Adesso e Fortuna
TTITLE6=Grit Sigmund - Spark
TTITLE7=Grit Sigmund - Rolling Thunder
TTITLE8=Grit Sigmund - Circle of Life
TTITLE9=Grit Sigmund - Samain Night
TTITLE10=Grit Sigmund - Sleeping Sun
TTITLE11=Grit Sigmund - Into the West
EXTD=
EXTT0=
EXTT1=
EXTT2=
EXTT3=
EXTT4=
EXTT5=
EXTT6=
EXTT7=
EXTT8=
EXTT9=
EXTT10=
EXTT11=
PLAYORDER=
